{
	"accessors" : 
	[
		{
			"bufferView" : 2,
			"byteOffset" : 0,
			"componentType" : 5126,
			"count" : 262,
			"max" : 
			[
				0.1939721554517746,
				0.4368127584457397,
				0.07805658876895905,
				1
			],
			"min" : 
			[
				0.0697270855307579,
				0.08919350802898407,
				0.06190747767686844,
				1
			],
			"name" : "accessor_color_m0-PolyPaper10_-67618",
			"type" : "VEC4"
		},
		{
			"bufferView" : 0,
			"byteOffset" : 0,
			"componentType" : 5123,
			"count" : 312,
			"max" : 
			[
				261
			],
			"min" : 
			[
				0
			],
			"name" : "accessor_indices_0_m0-PolyPaper10_-67618",
			"type" : "SCALAR"
		},
		{
			"bufferView" : 1,
			"byteOffset" : 3144,
			"componentType" : 5126,
			"count" : 262,
			"max" : 
			[
				0.9990026,
				0.9976846,
				0.9972444
			],
			"min" : 
			[
				-0.9990026,
				-0.9979838,
				-0.9972444
			],
			"name" : "accessor_normal_m0-PolyPaper10_-67618",
			"type" : "VEC3"
		},
		{
			"bufferView" : 1,
			"byteOffset" : 0,
			"componentType" : 5126,
			"count" : 262,
			"max" : 
			[
				0.7140453,
				3.264891,
				0.5893781
			],
			"min" : 
			[
				-0.9496907999999999,
				0.02662276,
				-1.003298
			],
			"name" : "accessor_position_m0-PolyPaper10_-67618",
			"type" : "VEC3"
		}
	],
	"asset" : 
	{
		"copyright" : "Unknown",
		"generator" : "glTF 1-to-2 Upgrader for Google Blocks",
		"version" : "2.0"
	},
	"bufferViews" : 
	[
		{
			"buffer" : 0,
			"byteLength" : 624,
			"byteOffset" : 0,
			"name" : "ushortBufferView",
			"target" : 34963
		},
		{
			"buffer" : 0,
			"byteLength" : 6288,
			"byteOffset" : 624,
			"byteStride" : 12,
			"name" : "vec3BufferView",
			"target" : 34962
		},
		{
			"buffer" : 0,
			"byteLength" : 4192,
			"byteOffset" : 6912,
			"byteStride" : 16,
			"name" : "vec4BufferView",
			"target" : 34962
		}
	],
	"buffers" : 
	[
		{
			"byteLength" : 11104,
			"name" : "model",
			"uri" : "model.bin"
		}
	],
	"materials" : 
	[
		{
			"alphaMode" : "OPAQUE",
			"doubleSided" : false,
			"name" : "BlocksPaper",
			"pbrMetallicRoughness" : 
			{
				"baseColorFactor" : 
				[
					1,
					1,
					1,
					1
				],
				"metallicFactor" : 0,
				"roughnessFactor" : 0.6
			}
		},
		{
			"alphaMode" : "BLEND",
			"doubleSided" : false,
			"name" : "BlocksGlass",
			"pbrMetallicRoughness" : 
			{
				"baseColorFactor" : 
				[
					0.2,
					0.2,
					1,
					0.3
				],
				"metallicFactor" : 1,
				"roughnessFactor" : 0.4
			}
		},
		{
			"alphaMode" : "OPAQUE",
			"doubleSided" : true,
			"name" : "BlocksGem",
			"pbrMetallicRoughness" : 
			{
				"baseColorFactor" : 
				[
					1,
					0.4,
					1,
					1
				],
				"metallicFactor" : 0,
				"roughnessFactor" : 0.1
			}
		}
	],
	"meshes" : 
	[
		{
			"name" : "mesh_m0-PolyPaper10_-67618",
			"primitives" : 
			[
				{
					"attributes" : 
					{
						"COLOR_0" : 0,
						"NORMAL" : 2,
						"POSITION" : 3
					},
					"indices" : 1,
					"material" : 0,
					"mode" : 4
				}
			]
		}
	],
	"nodes" : 
	[
		{
			"matrix" : 
			[
				1,
				0,
				0,
				0,
				0,
				1,
				0,
				0,
				0,
				0,
				1,
				0,
				0,
				0,
				0,
				1
			],
			"mesh" : 0,
			"name" : "node_MeshObject-1441052864-PolyPaper10"
		}
	],
	"scene" : 0,
	"scenes" : 
	[
		{
			"extras" : {},
			"name" : "defaultScene",
			"nodes" : 
			[
				0
			]
		}
	]
}